<svg version="1.1" id="Ebene_1" xmlns="http://www.w3.org/2000/svg" x="0" y="0" viewBox="0 0 90 15.8" xml:space="preserve"><style>.st0{fill:#005ea4}.st1{fill:#db0029}</style><g id="Symbols"><g id="nav_x2F_search" transform="translate(-54 -19)"><g id="Navi"><g transform="translate(54.286 18.954)" id="Logo-Aponeo-Clean"><g id="Group-5" transform="translate(59.14 .303)"><path id="Fill-3" class="st0" d="M3.8.3H.3l-2.1 11.2L-5.5.3S-6-.1-7.9-.1c-2 0-2.4.4-2.4.4l-3 14.5h3.5l2.1-11 3.6 11s.4.4 2.5.4 2.3-.4 2.3-.4L3.8.3z"/></g><g id="Group-17" transform="translate(0 .138)"><g id="Group-10"><path id="Fill-8" class="st1" d="M12.6 7.1H5.8c1.2-3 2.5-5 7.7-4.1l-.9 4.1zM3.1 5.6C1.8 9.1-.3 14.9-.3 14.9h3.6l1.7-5h7l-1.1 5h3.5l3-14.2C9.8-1.4 4.9.6 3.1 5.6z"/></g><path id="Fill-11" class="st1" d="M42.1 7.7c-.8 4-1.8 4.8-4.3 4.8-2.4 0-3-.8-2.2-4.8.9-4.1 1.8-4.8 4.2-4.8 2.5 0 3.2.6 2.3 4.8M40.4 0c-4.5 0-7.2 1.7-8.4 7.6-1.2 5.9.6 7.7 5.2 7.7 4.6 0 7.2-1.8 8.5-7.7C46.9 1.7 45 0 40.4 0"/><linearGradient id="Fill-11-Copy_1_" gradientUnits="userSpaceOnUse" x1="-1725.833" y1="10.319" x2="-1726.4" y2="10.77" gradientTransform="matrix(18.5784 0 0 19.6786 32153.375 -201.466)"><stop offset="0" stop-color="#0097d1"/><stop offset="1" stop-color="#005ea4"/></linearGradient><path id="Fill-11-Copy" d="M85.7 8.1c-.8 4-1.8 4.8-4.3 4.8-2.4 0-3-.8-2.2-4.8.9-4.1 1.8-4.8 4.2-4.8 2.6 0 3.2.6 2.3 4.8M84.1.4c-4.5 0-7.2 1.7-8.4 7.6s.6 7.7 5.2 7.7 7.2-1.8 8.5-7.7c1.2-5.9-.7-7.6-5.3-7.6" fill="url(#Fill-11-Copy_1_)"/><path id="Fill-13" class="st1" d="M27.8 5.9c-.5 1.8-1.5 2-3.1 2-1.7 0-3-.2-3-.2l1-4.7s1-.2 2.2-.3c2.8-.2 3.6.6 2.9 3.2M24.9 0c-2.8.3-5.3.8-5.3.8l-3 14.1h3.5l1-4.6s1.4.3 3 .3c4.1.1 6.4-1.1 7.1-5.1 1.2-5.7-4-5.7-6.3-5.5"/><path id="Fill-15" class="st0" d="M67.8 3.3h7.3l.6-2.8H65s-.5 1.8-1.6 7.3c-1.2 5.9.1 7.7 4.7 7.7 3 0 5.6-.7 5.6-.7l.6-2.7s-3 .5-5.6.5c-2.3 0-2.5-.8-2-3.7h6l.6-2.8h-5.9l.4-2.8z"/></g></g></g></g></g></svg>