<svg version="1.1" id="Layer_1" xmlns="http://www.w3.org/2000/svg" xmlns:xlink="http://www.w3.org/1999/xlink" x="0px" y="0px"
	 viewBox="0 0 795 135" style="enable-background:new 0 0 795 135;" xml:space="preserve">
<style type="text/css">
	.st0{fill:#512464;}
</style>
<g>
	<path class="st0" d="M16.4,121.1V63.2h-5.6c-3.4,0.1-6-0.8-7.9-2.8c-1.9-2-2.9-4.6-2.9-8c0-3.1,1-5.7,3-7.8c2-2.1,4.6-3.1,7.8-3.1
		l5.6-0.2v-15c0-4.1,1.2-7.4,3.6-9.9s5.4-3.8,9-3.8c3.7,0,6.7,1.3,9.1,3.8c2.3,2.6,3.5,5.9,3.5,10.1v14.8h7.1c3.2,0.1,6.1,1,8.4,2.6
		c2.4,1.6,3.6,4.4,3.6,8.5c0,3.9-1.2,6.7-3.6,8.4c-2.4,1.7-5.2,2.5-8.4,2.5h-7.1v57.8c0,4.3-1.2,7.7-3.5,10.2
		c-2.3,2.5-5.3,3.7-9.1,3.7c-3.6,0-6.6-1.2-9-3.7c-2.4-2.5-3.6-5.8-3.6-10V121.1z"/>
	<path class="st0" d="M147.6,56.5v62.1v2.8c0,0.9-0.1,1.9-0.2,3c-0.3,2.7-1.3,5.1-2.9,7.3c-1.6,2.2-4.6,3.3-9,3.3
		c-3.6,0-6.3-0.9-8-2.8c-1.7-1.9-3.1-4.4-4-7.7c-3.3,3.8-6.9,6.7-10.8,8.6c-3.9,1.9-8.3,2.9-13.1,2.9c-11.7,0-21.6-4.5-29.5-13.5
		c-8-9-11.9-20.6-11.9-34.6c0-13.8,4-25.4,12.1-34.7c8.1-9.3,17.9-14,29.4-14c4.6,0,9.1,0.9,13.3,2.8c4.2,1.9,7.8,4.8,10.5,8.8
		c0.3-3.1,1.7-5.6,4-7.6c2.3-2,5-3,8-3c4.4,0,7.4,1.1,9,3.4c1.6,2.3,2.5,4.7,2.9,7.4c0.1,1.1,0.2,2,0.2,3v2.6V56.5z M83.3,87.8v1.7
		c0,0.5,0.1,1.1,0.2,1.7c0.5,5.5,2.3,10.5,5.5,15.2c3.2,4.6,7.9,7,14.2,7c6,0,10.6-2.3,13.8-7c3.1-4.6,4.9-9.7,5.4-15.2
		c0.1-0.6,0.2-1.1,0.2-1.7V88c0-0.6,0-1.2-0.1-1.8c-0.1-0.6-0.1-1.3-0.1-2c-0.6-5.5-2.4-10.5-5.6-15c-3.1-4.5-7.7-6.8-13.6-6.8
		c-6.2,0-10.8,2.3-14,6.8c-3.2,4.5-5.1,9.5-5.7,15c0,0.7,0,1.4-0.1,2c-0.1,0.6-0.1,1.3-0.1,1.8V87.8z"/>
	<path class="st0" d="M161.5,121.1V13.8c0-4.1,1.2-7.4,3.6-9.9c2.4-2.6,5.4-3.8,9-3.8c3.7,0,6.7,1.3,9.1,3.8
		c2.3,2.6,3.5,5.9,3.5,10.1v107.1c0,4.3-1.2,7.7-3.5,10.2c-2.3,2.5-5.3,3.7-9.1,3.7c-3.6,0-6.6-1.2-9-3.7c-2.4-2.5-3.6-5.8-3.6-10
		V121.1z"/>
	<path class="st0" d="M200.5,121.1V13.8c0-4.1,1.2-7.4,3.6-9.9c2.4-2.6,5.4-3.8,9-3.8c3.7,0,6.7,1.3,9.1,3.8
		c2.3,2.6,3.5,5.9,3.5,10.1v58.2l27.5-26.7c2-1.9,3.9-3.2,5.9-4c2-0.8,3.8-1.2,5.4-1.2c3,0,5.5,1.1,7.5,3.4c2,2.3,3,4.7,3.1,7.4v0.3
		v0.3c0,1.2-0.1,2.3-0.4,3.4c-0.3,1.1-0.8,2.2-1.5,3.2c-0.5,0.6-0.9,1.1-1.4,1.7c-0.5,0.5-1,1.1-1.6,1.7l-22.3,19.7l29.4,34.6
		c0.8,0.9,1.4,1.9,1.8,2.9c0.4,1,0.7,1.9,1,2.9c0.1,0.5,0.2,0.9,0.3,1.4c0.1,0.5,0.1,0.9,0.1,1.4c0,3.3-1.1,6-3.4,8.3
		c-2.3,2.3-5.1,3.4-8.4,3.4c-1.5,0-2.9-0.3-4.3-0.9c-1.3-0.6-2.6-1.4-3.9-2.4c-0.6-0.6-1.2-1.2-1.8-1.9c-0.6-0.7-1.3-1.5-2-2.3
		l-30.7-38h-0.3v30.5c0,4.3-1.2,7.7-3.5,10.2c-2.3,2.5-5.3,3.7-9.1,3.7c-3.6,0-6.6-1.2-9-3.7c-2.4-2.5-3.6-5.8-3.6-10V121.1z"/>
	<path class="st0" d="M287.6,121.1V54c0-4.1,1.2-7.4,3.6-9.9c2.4-2.6,5.4-3.8,9-3.8c3.3,0,5.9,0.8,7.8,2.4c2,1.6,3.2,4,3.7,7
		c3-3.4,6.5-5.9,10.5-7.8c3.9-1.8,8.2-2.7,12.9-2.7c5.2,0,10,1.1,14.5,3.2c4.4,2.1,8.2,5.3,11.5,9.5c2.2-2.4,4.7-4.6,7.5-6.4
		c2.8-1.9,5.6-3.3,8.5-4.4c1.9-0.6,3.7-1,5.4-1.4c1.7-0.3,3.4-0.5,5-0.5c10.2,0,18.5,2.9,24.8,8.6c6.3,5.8,9.5,14.2,9.5,25.2v48
		c0,4.3-1.2,7.7-3.5,10.2c-2.3,2.5-5.3,3.7-9.1,3.7c-3.6,0-6.6-1.2-9-3.7c-2.4-2.5-3.6-5.8-3.6-10V77.4c0-5-1.3-9.1-3.9-12.3
		c-2.6-3.2-6.2-4.8-10.7-4.8c-4.6,0-8.3,1.6-10.9,4.8c-2.6,3.2-3.9,7.3-3.9,12.5v43.6c0,4.3-1.2,7.7-3.5,10.2
		c-2.3,2.5-5.3,3.7-9.1,3.7c-3.6,0-6.6-1.2-9-3.7c-2.4-2.5-3.6-5.8-3.6-10V77.4c0-5-1.3-9.1-3.9-12.3c-2.6-3.2-6.2-4.8-10.7-4.8
		c-5.1,0-8.9,1.6-11.2,4.8c-2.4,3.2-3.6,7.3-3.6,12.5v43.6c0,4.3-1.2,7.7-3.5,10.2c-2.3,2.5-5.3,3.7-9.1,3.7c-3.6,0-6.6-1.2-9-3.7
		c-2.4-2.5-3.6-5.8-3.6-10V121.1z"/>
	<path class="st0" d="M477.4,39.2c13.2,0.1,24,5.1,32.4,14.9c8.4,9.8,12.5,21.1,12.5,33.9c0,13-4.1,24.3-12.4,33.8
		c-8.2,9.5-19.1,14.3-32.6,14.3c-13.5,0-24.3-4.8-32.6-14.3c-8.2-9.5-12.4-20.8-12.4-33.8c0-12.8,4.2-24.1,12.5-33.9
		c8.4-9.8,19.2-14.7,32.4-14.7V39.2z M463.3,69.2c-3.2,4.5-5.1,9.5-5.7,15c0,0.7,0,1.4-0.1,2c-0.1,0.6-0.1,1.2-0.1,1.8v1.5
		c0,0.5,0.1,1.1,0.2,1.7c0.5,5.5,2.3,10.5,5.5,15.2c3.2,4.6,7.9,7,14.2,7c6.3,0,11-2.3,14.2-7c3.2-4.7,5-9.7,5.5-15.2
		c0.1-0.6,0.2-1.1,0.2-1.7v-1.5c0-0.6,0-1.2-0.1-1.8c-0.1-0.6-0.1-1.3-0.1-2c-0.6-5.5-2.5-10.5-5.7-15c-3.2-4.5-7.9-6.8-14-6.8
		C471.2,62.3,466.5,64.6,463.3,69.2"/>
	<path class="st0" d="M533,121.1V13.8c0-4.1,1.2-7.4,3.6-9.9c2.4-2.6,5.4-3.8,9-3.8c3.7,0,6.7,1.3,9.1,3.8c2.3,2.6,3.5,5.9,3.5,10.1
		v34c3.4-2.8,7.1-4.9,11.2-6.4c4.1-1.5,8.3-2.2,12.6-2.2c13,0,22.9,4.9,29.6,14.7c6.7,9.8,10.3,20.6,10.8,32.5v1.1V89
		c0,11.8-3.7,22.6-11.2,32.4c-7.4,9.8-17.5,14.6-30.1,14.6c-0.8,0-1.7,0-2.5-0.1c-0.9-0.1-1.7-0.1-2.5-0.3c-3.6-0.7-7-1.9-10.3-3.7
		c-3.3-1.7-5.8-4.2-7.7-7.3c-0.8,3.3-2.2,5.8-4.3,7.6c-2,1.8-4.8,2.7-8.3,2.7c-3.6,0-6.6-1.2-9-3.7c-2.4-2.5-3.6-5.8-3.6-10V121.1z
		 M558,86.9c0,0.8,0,1.6,0.1,2.3c0.1,0.7,0.1,1.4,0.1,2.1c0.6,5.5,2.4,10.5,5.6,15.1c3.1,4.6,7.8,6.9,13.9,6.9
		c5.7,0,10.1-2.2,13.3-6.5c3.2-4.4,5.1-9.1,5.8-14.4c0.1-0.7,0.2-1.4,0.3-2.2c0.1-0.8,0.1-1.5,0.1-2.2c0-0.7,0-1.4-0.1-2.2
		c-0.1-0.8-0.1-1.5-0.3-2.2c-0.7-5.3-2.6-10.2-5.8-14.6c-3.2-4.4-7.6-6.6-13.3-6.6c-6.5,0-11.4,2.5-14.5,7.4
		c-3.2,4.9-4.9,10.4-5.1,16.3v0.6v0.4V86.9z"/>
	<path class="st0" d="M645.2,2.6c3.7,0.1,7,1.5,9.8,4.3c2.8,2.7,4.3,6,4.3,9.7c0,4-1.4,7.3-4.1,10.2c-2.7,2.8-6.1,4.3-10,4.3
		c-3.7,0-7-1.5-9.8-4.4c-2.8-2.9-4.3-6.3-4.3-10.1c0-3.6,1.4-6.8,4.3-9.6c2.8-2.8,6.1-4.2,9.8-4.2V2.6z M632.6,121.1V54
		c0-4.1,1.2-7.4,3.6-9.9c2.4-2.6,5.4-3.8,9-3.8c3.7,0,6.7,1.3,9.1,3.8c2.3,2.6,3.5,5.9,3.5,10.1v66.9c0,4.3-1.2,7.7-3.5,10.2
		c-2.3,2.5-5.3,3.7-9.1,3.7c-3.6,0-6.6-1.2-9-3.7c-2.4-2.5-3.6-5.8-3.6-10V121.1z"/>
	<path class="st0" d="M671.3,121.1V13.8c0-4.1,1.2-7.4,3.6-9.9c2.4-2.6,5.4-3.8,9-3.8c3.7,0,6.7,1.3,9.1,3.8
		c2.3,2.6,3.5,5.9,3.5,10.1v107.1c0,4.3-1.2,7.7-3.5,10.2c-2.3,2.5-5.3,3.7-9.1,3.7c-3.6,0-6.6-1.2-9-3.7c-2.4-2.5-3.6-5.8-3.6-10
		V121.1z"/>
	<path class="st0" d="M730.5,96c0.9,6.3,3.7,10.9,8.2,13.8c4.5,3,9.7,4.4,15.5,4.4c3.3,0,6.2-0.5,9-1.6c2.7-1,5.3-2.2,7.6-3.5
		c2.3-1.3,4.5-2.4,6.4-3.5c2-1,3.8-1.6,5.4-1.6c2.7,0,5.1,1.1,7.1,3.4c2.1,2.3,3.1,4.7,3.1,7.4c0,4.6-3.4,8.9-10.3,12.9
		c-6.9,4-14.4,6.5-22.6,7.7c-1.4,0.1-2.8,0.2-4.1,0.3c-1.3,0.1-2.6,0.2-3.9,0.2c-14.1,0-25.4-4.6-34.1-13.7
		c-8.7-9.1-13-20.6-13-34.4c0-12.8,4.2-24.1,12.5-33.9c8.4-9.8,19.2-14.7,32.4-14.7c11.7,0,21.5,3.9,29.4,11.6
		c7.8,7.7,12.8,16.2,14.9,25.4c0.2,1.4,0.4,2.8,0.6,4.3c0.2,1.4,0.3,2.9,0.3,4.3c0,3.7-0.9,6.5-2.6,8.3c-1.7,1.9-4.5,2.8-8.4,2.8
		H730.5z M769.9,79.3c-0.7-5.3-2.8-9.8-6.2-13.5c-3.4-3.7-8-5.5-13.9-5.5c-5.6,0-10.1,1.8-13.7,5.5c-3.5,3.7-5.6,8.2-6.2,13.5H769.9
		z"/>
</g>
</svg>
